<svg xmlns="http://www.w3.org/2000/svg" viewBox="0 0 64 64"><defs><style>.cls-1{fill:#d4effc;}.cls-2{fill:#ade1fa;}.cls-3{fill:#8ed8f8;}.cls-4{fill:#e1e4ed;}.cls-5{fill:#afb4c8;}.cls-6{fill:#99a1b1;}.cls-7{fill:#ffca6b;}.cls-8{fill:#f26973;}.cls-9{fill:#f2cac1;}.cls-10{fill:#fdddd7;}.cls-11{fill:none;stroke:#393045;stroke-linejoin:round;stroke-width:2px;}</style></defs><title>18-service</title><g id="_18-service" data-name="18-service"><circle class="cls-1" cx="32" cy="32" r="31"/><circle class="cls-2" cx="32" cy="32" r="25"/><circle class="cls-3" cx="32" cy="32" r="16"/><path class="cls-4" d="M45,23v5a4,4,0,0,0-3.52-3.97L42,23a10,10,0,0,0-20,0l.52,1.03A4,4,0,0,0,19,28V23a13,13,0,0,1,26,0Z"/><polygon class="cls-4" points="32 46 29 49 26 46 26 42 28 42 32 46"/><polygon class="cls-4" points="39 42 39 45 35 49 32 46 36 42 39 42"/><path class="cls-5" d="M44,46v8H32V46l3,3,4-4V42h1A4,4,0,0,1,44,46Z"/><path class="cls-6" d="M32,46v8H20V46a4,4,0,0,1,4-4h2v4l3,3Z"/><path class="cls-7" d="M22.52,24.03,22,23a10,10,0,0,1,20,0l-.52,1.03L41,25v2c0,.34-.01.68-.02,1a39.227,39.227,0,0,1-4.17-.2C28,26.86,28,23,28,23c0,4.81-4.63,4.99-4.98,5-.01-.32-.02-.66-.02-1V25Z"/><path class="cls-8" d="M23.02,28a18.921,18.921,0,0,0,.53,4H23a4,4,0,0,1-.48-7.97L23,25v2C23,27.34,23.01,27.68,23.02,28Z"/><path class="cls-8" d="M43,31.46A3.989,3.989,0,0,1,41,32h-.55a18.921,18.921,0,0,0,.53-4c.01-.32.02-.66.02-1V25l.48-.97A4,4,0,0,1,43,31.46Z"/><path class="cls-9" d="M36,38.12V42l-4,4-4-4V38.12a9.531,9.531,0,0,0,8,0Z"/><path class="cls-10" d="M40.45,32a10.408,10.408,0,0,1-1.86,4A7.336,7.336,0,0,1,36,38.12a9.531,9.531,0,0,1-8,0c-1.93-.95-3.62-2.81-4.45-6.12a18.921,18.921,0,0,1-.53-4c.35-.01,4.98-.19,4.98-5,0,0,0,3.86,8.81,4.8a39.227,39.227,0,0,0,4.17.2A18.921,18.921,0,0,1,40.45,32Z"/><polygon class="cls-7" points="48.96 6.04 52 3 54 11 46 9 48.96 6.04"/><path class="cls-11" d="M22.52,24.03,23,25v2c0,.34.01.68.02,1a18.921,18.921,0,0,0,.53,4c.83,3.31,2.52,5.17,4.45,6.12a9.531,9.531,0,0,0,8,0A7.336,7.336,0,0,0,38.59,36a10.408,10.408,0,0,0,1.86-4,18.921,18.921,0,0,0,.53-4c.01-.32.02-.66.02-1V25l.48-.97L42,23a10,10,0,0,0-20,0Z"/><path class="cls-11" d="M23,28h.02c.35-.01,4.98-.19,4.98-5,0,0,0,3.86,8.81,4.8a39.227,39.227,0,0,0,4.17.2H41"/><path class="cls-11" d="M34,23s0,1.91,2.81,4.8c.06.06.12.13.19.2"/><path class="cls-11" d="M41,24a3.866,3.866,0,0,1,.48.03A4,4,0,0,1,41,32H40"/><path class="cls-11" d="M23,24a3.866,3.866,0,0,0-.48.03A4,4,0,0,0,23,32h1"/><path class="cls-11" d="M45,28V23a13,13,0,0,0-26,0v5"/><polyline class="cls-11" points="43 31 43 31.46 43 34 41 36 38.59 36 34 36"/><path class="cls-11" d="M36,38v4h4a4,4,0,0,1,4,4v8H20V46a4,4,0,0,1,4-4h4V38"/><polyline class="cls-11" points="36 42 32 46 28 42"/><polyline class="cls-11" points="39 42 39 45 35 49 32 46 29 49 26 46 26 42"/><line class="cls-11" x1="32" y1="46" x2="32" y2="54"/><path class="cls-11" d="M57.92,15a30.919,30.919,0,1,1-8.96-8.96c.01.01.03.02.04.03"/><polygon class="cls-11" points="46 9 48.96 6.04 52 3 54 11 46 9"/></g></svg>