<?xml version="1.0" standalone="no"?>
<!DOCTYPE svg PUBLIC "-//W3C//DTD SVG 20010904//EN"
 "http://www.w3.org/TR/2001/REC-SVG-20010904/DTD/svg10.dtd">
<svg version="1.0" xmlns="http://www.w3.org/2000/svg"
 width="1633.000000pt" height="1634.000000pt" viewBox="0 0 1633.000000 1634.000000"
 preserveAspectRatio="xMidYMid meet">

<g transform="translate(0.000000,1634.000000) scale(0.100000,-0.100000)"
fill="#000000" stroke="none">
<path d="M12345 16319 c-1105 -78 -2109 -643 -2762 -1555 -385 -538 -620
-1188 -673 -1863 -6 -85 -10 -649 -10 -1518 l0 -1383 -2052 0 c-1299 0 -2104
-4 -2193 -10 -1560 -114 -2953 -929 -3820 -2235 -312 -469 -536 -978 -676
-1533 -150 -595 -187 -1239 -108 -1862 168 -1327 884 -2546 1974 -3360 1103
-824 2496 -1152 3865 -909 877 155 1701 552 2396 1154 144 125 416 401 533
540 709 849 1106 1845 1171 2940 6 104 10 944 10 2173 l0 2002 1333 0 c1321 0
1534 4 1767 35 1391 185 2560 1141 3023 2472 87 251 162 602 187 873 24 269 8
685 -35 943 -93 553 -310 1079 -632 1534 -183 259 -469 563 -712 756 -740 589
-1648 872 -2586 806z m490 -1099 c223 -21 471 -75 661 -145 142 -52 421 -192
544 -272 608 -400 1030 -1043 1149 -1755 134 -795 -105 -1595 -659 -2205 -389
-428 -935 -716 -1544 -816 -129 -21 -157 -21 -1558 -24 l-1428 -4 0 1388 c0
1194 2 1407 16 1523 57 492 244 943 553 1335 85 108 285 308 401 402 525 424
1208 634 1865 573z m-3938 -8422 c-4 -2302 0 -2147 -62 -2493 -231 -1276
-1110 -2373 -2310 -2883 -350 -149 -697 -240 -1095 -288 -180 -22 -637 -25
-810 -6 -490 55 -937 185 -1350 392 -895 449 -1573 1205 -1925 2150 -117 316
-196 678 -226 1035 -16 197 -6 607 20 801 152 1128 776 2126 1718 2747 570
376 1162 580 1858 640 22 2 973 4 2113 5 l2073 2 -4 -2102z"/>
</g>
</svg>
