<?xml version="1.0" standalone="no"?><svg xmlns="http://www.w3.org/2000/svg" viewBox="0 0 1440 320"><path fill="#ffeff0" fill-opacity="1" d="M0,224L34.3,229.3C68.6,235,137,245,206,218.7C274.3,192,343,128,411,133.3C480,139,549,213,617,245.3C685.7,277,754,267,823,245.3C891.4,224,960,192,1029,160C1097.1,128,1166,96,1234,69.3C1302.9,43,1371,21,1406,10.7L1440,0L1440,320L1405.7,320C1371.4,320,1303,320,1234,320C1165.7,320,1097,320,1029,320C960,320,891,320,823,320C754.3,320,686,320,617,320C548.6,320,480,320,411,320C342.9,320,274,320,206,320C137.1,320,69,320,34,320L0,320Z"></path></svg>